<?xml version="1.0" encoding="UTF-8" standalone="no" ?>
<!DOCTYPE svg PUBLIC "-//W3C//DTD SVG 1.1//EN" "http://www.w3.org/Graphics/SVG/1.1/DTD/svg11.dtd">
<svg xmlns="http://www.w3.org/2000/svg" xmlns:xlink="http://www.w3.org/1999/xlink" version="1.1" width="1080" height="1080" viewBox="0 0 1080 1080" xml:space="preserve">
<desc>Created with Fabric.js 5.2.4</desc>
<defs>
</defs>
<g transform="matrix(1 0 0 1 540 540)" id="839d5f4d-fa1e-41ab-8048-ee83f95885d3"  >
<rect style="stroke: none; stroke-width: 1; stroke-dasharray: none; stroke-linecap: butt; stroke-dashoffset: 0; stroke-linejoin: miter; stroke-miterlimit: 4; fill: rgb(255,255,255); fill-rule: nonzero; opacity: 1; visibility: hidden;" vector-effect="non-scaling-stroke"  x="-540" y="-540" rx="0" ry="0" width="1080" height="1080" />
</g>
<g transform="matrix(1 0 0 1 540 540)" id="cf046ae2-5879-4d13-b295-32cb4cdb5ed6"  >
</g>
<g transform="matrix(1 0 0 1 540 540)"  >
<g style="" vector-effect="non-scaling-stroke"   >
		<g transform="matrix(33.33 0 0 33.33 -16.67 -200)"  >
<path style="stroke: none; stroke-width: 1; stroke-dasharray: none; stroke-linecap: butt; stroke-dashoffset: 0; stroke-linejoin: miter; stroke-miterlimit: 4; fill: rgb(23,228,183); fill-rule: nonzero; opacity: 1;" vector-effect="non-scaling-stroke"  transform=" translate(-12, -6)" d="M 7 4.82936 C 7 6.37714 8.72593 8.00761 10.1497 9.08932 C 10.9489 9.69644 11.3484 10 12 10 C 12.6516 10 13.0512 9.69644 13.8503 9.08933 C 15.2741 8.00763 17 6.37717 17 4.82935 C 17 2.03918 14.2499 0.997463 12 3.15285 C 9.75008 0.997463 7 2.03918 7 4.82936 Z" stroke-linecap="round" />
</g>
		<g transform="matrix(33.33 0 0 33.33 0 216.67)"  >
<path style="stroke: none; stroke-width: 1; stroke-dasharray: none; stroke-linecap: butt; stroke-dashoffset: 0; stroke-linejoin: miter; stroke-miterlimit: 4; fill: rgb(23,228,183); fill-rule: nonzero; opacity: 1;" vector-effect="non-scaling-stroke"  transform=" translate(-12.5, -18.5)" d="M 6.25993 21.3884 L 6 21.3884 C 5.05719 21.3884 4.58579 21.3884 4.29289 21.0955 C 4 20.8026 4 20.3312 4 19.3884 L 4 18.2764 C 4 17.7579 4 17.4987 4.13318 17.2672 C 4.26636 17.0356 4.46727 16.9188 4.8691 16.6851 C 7.51457 15.1464 11.2715 14.2803 13.7791 15.7759 C 13.9475 15.8764 14.0991 15.9977 14.2285 16.1431 C 14.7866 16.77 14.746 17.7161 14.1028 18.2775 C 13.9669 18.396 13.8222 18.486 13.6764 18.5172 C 13.7962 18.5033 13.911 18.4874 14.0206 18.4699 C 14.932 18.3245 15.697 17.8375 16.3974 17.3084 L 18.2046 15.9433 C 18.8417 15.462 19.7873 15.4619 20.4245 15.943 C 20.9982 16.3762 21.1736 17.0894 20.8109 17.6707 C 20.388 18.3487 19.7921 19.216 19.2199 19.7459 C 18.6469 20.2766 17.7939 20.7504 17.0975 21.0865 C 16.326 21.4589 15.4738 21.6734 14.6069 21.8138 C 12.8488 22.0983 11.0166 22.0549 9.27633 21.6964 C 8.29253 21.4937 7.27079 21.3884 6.25993 21.3884 Z" stroke-linecap="round" />
</g>
</g>
</g>
</svg>